<svg width="35" height="19" viewBox="0 0 35 19" fill="none" xmlns="http://www.w3.org/2000/svg">
  <rect x="1" y="0.67041" width="33" height="17" rx="2" fill="white"/>
  <path d="M12.4792 6.26241V12.6704H11.6152L8.15923 8.17941V12.6704H7.07923V6.26241H7.94323L11.3902 10.7444V6.26241H12.4792ZM13.8732 6.26241H18.1572V7.18041H15.0072V8.95341H17.9682V9.87141H15.0072V11.7524H18.1572V12.6704H13.8732V6.26241ZM28.4057 6.26241L26.1377 12.6704H25.1927L23.5817 8.06241L21.9527 12.6704H21.0077L18.7487 6.26241H19.9277L21.5297 11.0414L23.1947 6.26241H24.0227L25.6517 11.0774L27.2897 6.26241H28.4057Z" fill="#F6430F"/>
  <rect x="1" y="0.67041" width="33" height="17" rx="2" stroke="#F6430F"/>
</svg>
